<svg xmlns="http://www.w3.org/2000/svg" xmlns:xlink="http://www.w3.org/1999/xlink" version="1.1" id="Layer_1" x="0px" y="0px" viewBox="0 0 100 100" enable-background="new 0 0 100 100" xml:space="preserve" height="100px" width="100px">
<g>
	<path d="M49.5,5c-24.9,0-45,20.1-45,45s20.1,45,45,45s45-20.1,45-45S74.4,5,49.5,5z M71.3,65.2c0.3,0.3,0.5,0.7,0.5,1.1   s-0.2,0.8-0.5,1.1L67,71.8c-0.3,0.3-0.7,0.5-1.1,0.5s-0.8-0.2-1.1-0.5L49.5,56.6L34.4,71.8c-0.3,0.3-0.7,0.5-1.1,0.5   c-0.4,0-0.8-0.2-1.1-0.5l-4.3-4.4c-0.3-0.3-0.5-0.7-0.5-1.1c0-0.4,0.2-0.8,0.5-1.1L43,49.9L27.8,34.9c-0.6-0.6-0.6-1.6,0-2.3   l4.3-4.4c0.3-0.3,0.7-0.5,1.1-0.5c0.4,0,0.8,0.2,1.1,0.5l15.2,15l15.2-15c0.3-0.3,0.7-0.5,1.1-0.5s0.8,0.2,1.1,0.5l4.3,4.4   c0.6,0.6,0.6,1.6,0,2.3L56.1,49.9L71.3,65.2z"/>
</g>
</svg>